<?xml version="1.0" encoding="UTF-8"?>
<svg id="Layer_1" data-name="Layer 1" xmlns="http://www.w3.org/2000/svg" viewBox="0 0 362.48 60.81">
  <defs>
    <style>
      .cls-1 {
        fill: #f26722;
      }

      .cls-1, .cls-2 {
        stroke-width: 0px;
      }

      .cls-2 {
        fill: #000;
      }
    </style>
  </defs>
  <g>
    <path class="cls-2" d="M0,2.46h12.62v22.7h23.27V2.46h12.62v57.37h-12.62v-23.03H12.62v23.03H0V2.46Z"/>
    <path class="cls-2" d="M54.7,38.11v-.16c0-12.62,10.16-22.86,23.85-22.86s23.68,10.08,23.68,22.7v.16c0,12.62-10.16,22.86-23.85,22.86s-23.68-10.08-23.68-22.7ZM89.94,38.11v-.16c0-6.47-4.67-12.13-11.56-12.13s-11.39,5.49-11.39,11.96v.16c0,6.47,4.67,12.13,11.55,12.13s11.39-5.49,11.39-11.96Z"/>
    <path class="cls-2" d="M107.64,44.34V15.9h12.46v24.5c0,5.9,2.79,8.93,7.54,8.93s7.79-3.03,7.79-8.93V15.9h12.46v43.93h-12.46v-6.23c-2.87,3.69-6.56,7.05-12.87,7.05-9.42,0-14.92-6.23-14.92-16.31Z"/>
    <path class="cls-2" d="M153.78,37.94v-.16c0-14.67,9.59-22.7,19.99-22.7,6.64,0,10.74,3.03,13.69,6.56V0h12.46v59.82h-12.46v-6.31c-3.03,4.1-7.21,7.13-13.69,7.13-10.24,0-19.99-8.03-19.99-22.7ZM187.62,37.94v-.16c0-7.29-4.83-12.13-10.65-12.13s-10.73,4.75-10.73,12.13v.16c0,7.29,4.91,12.13,10.73,12.13s10.65-4.83,10.65-12.13Z"/>
    <path class="cls-2" d="M208.02,0h13.11v11.06h-13.11V0ZM208.35,15.9h12.46v43.93h-12.46V15.9Z"/>
    <path class="cls-2" d="M229.25,15.9h12.46v6.23c2.87-3.69,6.56-7.05,12.87-7.05,9.42,0,14.92,6.23,14.92,16.31v28.44h-12.46v-24.5c0-5.9-2.79-8.93-7.54-8.93s-7.79,3.03-7.79,8.93v24.5h-12.46V15.9Z"/>
    <path class="cls-2" d="M277.27,0h13.11v11.06h-13.11V0ZM277.6,15.9h12.46v43.93h-12.46V15.9Z"/>
  </g>
  <g>
    <path class="cls-1" d="M299.59,51.83v7.99h7c-3.4-1.93-5.8-4.88-7-7.99Z"/>
    <path class="cls-1" d="M328.95,43.5c0-7.39-5.94-14.5-14.85-14.8-6.31-.22-11.22,2.1-14.52,5.52v7.71c2.24-6.47,8.41-9.44,13.58-9.38,6.46.06,11.44,4.94,11.47,10.44.03,5.26-2.18,9.14-8.13,10.09-3.24.52-8.32-1.38-8.1-6.28.12-2.53,2.09-3.95,4.34-3.85-2.21,2.96.72,5.13,2.78,4.68,2.56-.55,3.6-2.82,3.6-4.58,0-1.86-1.75-4.86-6.1-4.76-5.38.13-8.76,4-8.88,8.78-.14,6.02,5.49,9.98,11.27,10.05,8.49.11,13.53-5.46,13.51-13.62Z"/>
    <path class="cls-1" d="M299.59,15.9v12.64c3.78-2.9,8.69-4.77,14.52-4.77,12.46,0,20.38,8.72,20.37,19.7,0,7.63-3.56,13.37-9.14,16.36h18.18V15.9h-43.93Z"/>
  </g>
  <g>
    <path class="cls-1" d="M350.14,17.38h-2.22v-1.48h6.03v1.48h-2.22v5.81h-1.6v-5.81Z"/>
    <path class="cls-1" d="M355.19,15.9h1.73l1.91,3.08,1.91-3.08h1.73v7.28h-1.59v-4.76l-2.05,3.11h-.04l-2.03-3.08v4.72h-1.57v-7.28Z"/>
  </g>
</svg>